<?xml version="1.0" encoding="UTF-8"?>
<svg id="Layer_1" data-name="Layer 1" xmlns="http://www.w3.org/2000/svg" viewBox="0 0 870.08 239.02">
  <defs>
    <style>
      .cls-1 {
        fill: #ff045e;
      }
    </style>
  </defs>
  <path class="cls-1" d="M172.48,156.18c-1.73,4.34-3.8,8.54-6.29,12.57-6.71,10.85-15.79,18.78-28.09,22.72-7.23,2.31-14.65,2.99-22.21,2.55-6.02-.34-11.87-1.44-17.64-2.94l-13.81,42.28c10.91,3.18,22.04,5.13,33.44,5.58,12,.45,23.81-.94,35.34-4.34,27.23-8.05,47.78-24.54,61.32-49.52,2.33-4.3,4.38-8.68,6.18-13.15l-48.23-15.75ZM228.6,105.42c-2.43-12-7.36-22.94-14.55-32.83-8.01-11.01-18.03-19.86-29.33-27.33-10.54-6.97-21.73-12.66-33.41-17.28l-13.77,42.13c3.64,1.53,7.2,3.23,10.66,5.15,7.91,4.38,15.07,9.71,20.73,16.87,5.17,6.52,8.38,13.91,9.72,22.13,1.28,7.91.8,15.73-.73,23.47l48.57,16.24c1.72-7.03,2.89-14.22,3.56-21.56.82-9.07.35-18.06-1.45-26.98ZM66.9,0C44.59,68.71,22.3,137.33,0,205.98c.39.16.67.29.96.39,22.77,7.39,45.54,14.8,68.31,22.17l13.64-42.17c-6.9-2.27-13.8-4.51-20.71-6.76-.33-.11-.65-.23-1.07-.39,13.18-40.56,26.34-81.06,39.52-121.63,7.34,2.4,14.58,4.76,21.81,7.12l13.8-42.1c-19.46-6.51-39.03-12.74-58.53-19.09-3.57-1.17-7.14-2.31-10.83-3.51Z"/>
  <g>
    <path class="cls-1" d="M322.85,158.91h25.48c-6.42,19.65-23.73,31.9-47.27,31.9-30.15,0-50.38-20.23-50.38-50.38s20.23-50,50.38-50,50.19,20.04,50.19,50c0,2.72-.2,5.25-.39,7.78h-76.06c2.53,13.42,12.25,21.21,26.07,21.21,9.73,0,17.31-3.7,21.98-10.51ZM325.38,126.81c-4.09-9.53-12.84-14.98-24.51-14.98s-20.23,5.45-24.32,14.98h48.83Z"/>
    <path class="cls-1" d="M348.53,91.79h26.84l19.06,28.79,19.07-28.79h26.84l-32.1,48.63,32.1,48.63h-26.84l-19.07-28.79-19.06,28.79h-26.84l32.1-48.63-32.1-48.63Z"/>
    <path class="cls-1" d="M445.41,227.97v-87.74c0-31.32,22.37-49.99,50.77-49.99s49.8,20.04,49.8,49.99-20.23,50.38-48.63,50.38c-14.01,0-23.93-5.06-28.6-11.09v48.44h-23.35ZM495.6,111.64c-16.15,0-26.84,10.7-26.84,28.79s10.7,28.79,26.84,28.79,27.04-10.7,27.04-28.79-10.7-28.79-27.04-28.79Z"/>
    <path class="cls-1" d="M602.98,90.04v21.4c-15.56,0-24.9,7.59-24.9,23.15v54.47h-23.34v-54.47c0-29.57,18.68-44.55,48.24-44.55Z"/>
    <path class="cls-1" d="M676.52,158.91h25.48c-6.42,19.65-23.73,31.9-47.27,31.9-30.15,0-50.38-20.23-50.38-50.38s20.23-50,50.38-50,50.19,20.04,50.19,50c0,2.72-.2,5.25-.39,7.78h-76.06c2.53,13.42,12.25,21.21,26.07,21.21,9.73,0,17.31-3.7,21.98-10.51ZM679.05,126.81c-4.09-9.53-12.84-14.98-24.51-14.98s-20.23,5.45-24.32,14.98h48.83Z"/>
    <path class="cls-1" d="M787.79,159.69c0,19.84-15.76,30.54-37.93,30.54-20.62,0-33.85-9.34-39.88-14.79l12.45-18.29c8.17,7.78,18.48,11.67,28.01,11.67,7.98,0,14.01-2.72,14.01-8.36,0-16.73-52.92-6.42-52.92-42.02,0-17.9,13.42-28.21,35.41-28.21,19.26,0,31.9,7.78,40.46,14.79l-12.45,18.09c-10.31-8.56-20.43-11.48-28.4-11.48s-11.67,2.53-11.67,6.42c0,14.2,52.91,5.25,52.91,41.63Z"/>
    <path class="cls-1" d="M870.08,159.69c0,19.84-15.76,30.54-37.93,30.54-20.62,0-33.85-9.34-39.88-14.79l12.45-18.29c8.17,7.78,18.48,11.67,28.01,11.67,7.98,0,14.01-2.72,14.01-8.36,0-16.73-52.92-6.42-52.92-42.02,0-17.9,13.42-28.21,35.41-28.21,19.26,0,31.9,7.78,40.46,14.79l-12.45,18.09c-10.31-8.56-20.43-11.48-28.4-11.48s-11.67,2.53-11.67,6.42c0,14.2,52.91,5.25,52.91,41.63Z"/>
  </g>
</svg>